<svg xmlns="http://www.w3.org/2000/svg" viewBox="0 0 1160 540" font-family="-apple-system, BlinkMacSystemFont, 'Segoe UI', Helvetica, Arial, sans-serif" role="img" aria-label="CEM planning loop">
<defs>
<linearGradient id="card" x1="0" y1="0" x2="0" y2="1"><stop offset="0" stop-color="#fdf7e9"/><stop offset="1" stop-color="#f6ecd2"/></linearGradient>
<radialGradient id="score" gradientUnits="userSpaceOnUse" cx="525" cy="158" r="380"><stop offset="0" stop-color="#b3552c" stop-opacity="0.32"/><stop offset="1" stop-color="#b3552c" stop-opacity="0"/></radialGradient>
<clipPath id="plot"><rect x="70" y="100" width="530" height="360" rx="10"/></clipPath>
<marker id="ah-b3552c" markerWidth="9" markerHeight="9" refX="7" refY="3" orient="auto" markerUnits="userSpaceOnUse"><path d="M0,0 L7.5,3 L0,6 Z" fill="#b3552c"/></marker>
<marker id="ah-845a8e" markerWidth="9" markerHeight="9" refX="7" refY="3" orient="auto" markerUnits="userSpaceOnUse"><path d="M0,0 L7.5,3 L0,6 Z" fill="#845a8e"/></marker>
<marker id="ah-7c7565" markerWidth="9" markerHeight="9" refX="7" refY="3" orient="auto" markerUnits="userSpaceOnUse"><path d="M0,0 L7.5,3 L0,6 Z" fill="#7c7565"/></marker>
</defs>
<rect x="1" y="1" width="1158" height="538" rx="18" fill="url(#card)" stroke="#e7dcc0" stroke-width="1.5"/>
<text x="580.0" y="38" text-anchor="middle" font-size="19" font-weight="700" fill="#2c2722">CEM planning · sample, score, refit, repeat</text>
<line x1="636" y1="74" x2="636" y2="500" stroke="#e7dcc0" stroke-width="1.3"/>
<g clip-path="url(#plot)">
<rect x="70" y="100" width="530" height="360" fill="#fbf4e4"/>
<rect x="70" y="100" width="530" height="360" fill="url(#score)"/>
</g>
<rect x="70" y="100" width="530" height="360" rx="10" fill="none" stroke="#e0d4b6" stroke-width="1.4"/>
<text x="335" y="480" text-anchor="middle" font-size="11.5" font-style="italic" fill="#7c7565">space of candidate action plans · warmer = closer to goal in latent space</text>
<g opacity="0"><animate attributeName="opacity" values="1;1;0;0;1" keyTimes="0;0.22;0.25;0.98;1" dur="8s" repeatCount="indefinite"/>
<ellipse cx="205" cy="372" rx="120" ry="84" fill="#d3e3e3" fill-opacity="0.4" stroke="#5d8a8a" stroke-width="1.8"/>
<circle cx="205" cy="372" r="3" fill="#5d8a8a"/>
<circle cx="130.6" cy="348.5" r="4" fill="#b3aa95" fill-opacity="0.9"/>
<circle cx="219.4" cy="323.3" r="5" fill="#b3552c" stroke="#fffdf6" stroke-width="1.3"/>
<circle cx="267.4" cy="361.9" r="5" fill="#b3552c" stroke="#fffdf6" stroke-width="1.3"/>
<circle cx="166.6" cy="407.3" r="4" fill="#b3aa95" fill-opacity="0.9"/>
<circle cx="248.2" cy="410.6" r="4" fill="#b3aa95" fill-opacity="0.9"/>
<circle cx="197.8" cy="377.0" r="4" fill="#b3aa95" fill-opacity="0.9"/>
<circle cx="284.2" cy="390.5" r="4" fill="#b3aa95" fill-opacity="0.9"/>
<circle cx="142.6" cy="385.4" r="4" fill="#b3aa95" fill-opacity="0.9"/>
<circle cx="231.4" cy="353.5" r="4" fill="#b3aa95" fill-opacity="0.9"/>
<circle cx="178.6" cy="330.0" r="4" fill="#b3aa95" fill-opacity="0.9"/>
<circle cx="260.2" cy="336.7" r="5" fill="#b3552c" stroke="#fffdf6" stroke-width="1.3"/>
<circle cx="161.8" cy="367.0" r="4" fill="#b3aa95" fill-opacity="0.9"/>
<text x="330" y="128" text-anchor="middle" font-size="12.5" fill="#2c2722">iteration 1 · wide search</text>
</g>
<g opacity="0"><animate attributeName="opacity" values="0;0;1;1;0;0" keyTimes="0;0.25;0.28;0.47;0.50;1" dur="8s" repeatCount="indefinite"/>
<ellipse cx="322" cy="300" rx="88" ry="64" fill="#d3e3e3" fill-opacity="0.4" stroke="#5d8a8a" stroke-width="1.8"/>
<circle cx="322" cy="300" r="3" fill="#5d8a8a"/>
<circle cx="267.4" cy="282.1" r="4" fill="#b3aa95" fill-opacity="0.9"/>
<circle cx="332.6" cy="262.9" r="5" fill="#b3552c" stroke="#fffdf6" stroke-width="1.3"/>
<circle cx="367.8" cy="292.3" r="5" fill="#b3552c" stroke="#fffdf6" stroke-width="1.3"/>
<circle cx="293.8" cy="326.9" r="4" fill="#b3aa95" fill-opacity="0.9"/>
<circle cx="353.7" cy="329.4" r="4" fill="#b3aa95" fill-opacity="0.9"/>
<circle cx="316.7" cy="303.8" r="4" fill="#b3aa95" fill-opacity="0.9"/>
<circle cx="380.1" cy="314.1" r="4" fill="#b3aa95" fill-opacity="0.9"/>
<circle cx="276.2" cy="310.2" r="4" fill="#b3aa95" fill-opacity="0.9"/>
<circle cx="341.4" cy="285.9" r="4" fill="#b3aa95" fill-opacity="0.9"/>
<circle cx="302.6" cy="268.0" r="4" fill="#b3aa95" fill-opacity="0.9"/>
<circle cx="362.5" cy="273.1" r="5" fill="#b3552c" stroke="#fffdf6" stroke-width="1.3"/>
<circle cx="290.3" cy="296.2" r="4" fill="#b3aa95" fill-opacity="0.9"/>
<text x="330" y="128" text-anchor="middle" font-size="12.5" fill="#2c2722">iteration 2 · refit to elites</text>
</g>
<g opacity="0"><animate attributeName="opacity" values="0;0;1;1;0;0" keyTimes="0;0.50;0.53;0.72;0.75;1" dur="8s" repeatCount="indefinite"/>
<ellipse cx="430" cy="226" rx="56" ry="42" fill="#d3e3e3" fill-opacity="0.4" stroke="#5d8a8a" stroke-width="1.8"/>
<circle cx="430" cy="226" r="3" fill="#5d8a8a"/>
<circle cx="395.3" cy="214.2" r="4" fill="#b3aa95" fill-opacity="0.9"/>
<circle cx="436.7" cy="201.6" r="5" fill="#b3552c" stroke="#fffdf6" stroke-width="1.3"/>
<circle cx="459.1" cy="221.0" r="5" fill="#b3552c" stroke="#fffdf6" stroke-width="1.3"/>
<circle cx="412.1" cy="243.6" r="4" fill="#b3aa95" fill-opacity="0.9"/>
<circle cx="450.2" cy="245.3" r="4" fill="#b3aa95" fill-opacity="0.9"/>
<circle cx="426.6" cy="228.5" r="4" fill="#b3aa95" fill-opacity="0.9"/>
<circle cx="467.0" cy="235.2" r="4" fill="#b3aa95" fill-opacity="0.9"/>
<circle cx="400.9" cy="232.7" r="4" fill="#b3aa95" fill-opacity="0.9"/>
<circle cx="442.3" cy="216.8" r="4" fill="#b3aa95" fill-opacity="0.9"/>
<circle cx="417.7" cy="205.0" r="4" fill="#b3aa95" fill-opacity="0.9"/>
<circle cx="455.8" cy="208.4" r="5" fill="#b3552c" stroke="#fffdf6" stroke-width="1.3"/>
<circle cx="409.8" cy="223.5" r="4" fill="#b3aa95" fill-opacity="0.9"/>
<text x="330" y="128" text-anchor="middle" font-size="12.5" fill="#2c2722">iteration 3 · narrowing</text>
</g>
<g opacity="0"><animate attributeName="opacity" values="0;0;1;1;0" keyTimes="0;0.75;0.78;0.97;1" dur="8s" repeatCount="indefinite"/>
<ellipse cx="500" cy="178" rx="28" ry="22" fill="#d3e3e3" fill-opacity="0.4" stroke="#5d8a8a" stroke-width="1.8"/>
<circle cx="500" cy="178" r="3" fill="#5d8a8a"/>
<circle cx="482.6" cy="171.8" r="4" fill="#b3aa95" fill-opacity="0.9"/>
<circle cx="503.4" cy="165.2" r="5" fill="#b3552c" stroke="#fffdf6" stroke-width="1.3"/>
<circle cx="514.6" cy="175.4" r="5" fill="#b3552c" stroke="#fffdf6" stroke-width="1.3"/>
<circle cx="491.0" cy="187.2" r="4" fill="#b3aa95" fill-opacity="0.9"/>
<circle cx="510.1" cy="188.1" r="4" fill="#b3aa95" fill-opacity="0.9"/>
<circle cx="498.3" cy="179.3" r="4" fill="#b3aa95" fill-opacity="0.9"/>
<circle cx="518.5" cy="182.8" r="4" fill="#b3aa95" fill-opacity="0.9"/>
<circle cx="485.4" cy="181.5" r="4" fill="#b3aa95" fill-opacity="0.9"/>
<circle cx="506.2" cy="173.2" r="4" fill="#b3aa95" fill-opacity="0.9"/>
<circle cx="493.8" cy="167.0" r="4" fill="#b3aa95" fill-opacity="0.9"/>
<circle cx="512.9" cy="168.8" r="5" fill="#b3552c" stroke="#fffdf6" stroke-width="1.3"/>
<circle cx="489.9" cy="176.7" r="4" fill="#b3aa95" fill-opacity="0.9"/>
<circle cx="516" cy="167" r="6" fill="#b3552c" stroke="#fffdf6" stroke-width="1.6"/>
<text x="516" y="220" text-anchor="middle" font-size="11" font-style="italic" fill="#7a3a1a">winning plan</text>
<text x="330" y="128" text-anchor="middle" font-size="12.5" fill="#2c2722">iteration 4 · converged</text>
</g>
<circle cx="525" cy="158" r="16" fill="#b3552c" fill-opacity="0.25"/>
<circle cx="525" cy="158" r="10" fill="#b3552c" fill-opacity="0.45"/>
<circle cx="525" cy="158" r="4.5" fill="#b3552c" fill-opacity="1"/>
<text x="525" y="132" text-anchor="middle" font-size="12" font-style="italic" fill="#7a3a1a">goal latent z<tspan baseline-shift="sub" font-size="9">g</tspan></text>
<text x="707" y="112" font-size="13.5" font-weight="700" fill="#2c2722">The planning loop</text>
<circle cx="722" cy="150" r="15" fill="#f4d9c1" stroke="#b3552c" stroke-width="1.7"/><text x="722" y="155" text-anchor="middle" font-size="14" font-weight="700" fill="#7a3a1a">1</text>
<text x="748" y="155" font-size="13" fill="#2c2722">Encode the current frame and goal once</text>
<circle cx="722" cy="222" r="15" fill="#f4d9c1" stroke="#b3552c" stroke-width="1.7"/><text x="722" y="227" text-anchor="middle" font-size="14" font-weight="700" fill="#7a3a1a">2</text>
<text x="748" y="227" font-size="13" fill="#2c2722">Sample candidate plans, roll each through the world model</text>
<circle cx="722" cy="294" r="15" fill="#f4d9c1" stroke="#b3552c" stroke-width="1.7"/><text x="722" y="299" text-anchor="middle" font-size="14" font-weight="700" fill="#7a3a1a">3</text>
<text x="748" y="299" font-size="13" fill="#2c2722">Score each imagined endpoint by latent distance to goal</text>
<circle cx="722" cy="366" r="15" fill="#f4d9c1" stroke="#b3552c" stroke-width="1.7"/><text x="722" y="371" text-anchor="middle" font-size="14" font-weight="700" fill="#7a3a1a">4</text>
<text x="748" y="371" font-size="13" fill="#2c2722">Keep the top fraction, resample around them, repeat</text>
<circle cx="722" cy="430" r="15" fill="#f4d9c1" stroke="#b3552c" stroke-width="1.7"/><text x="722" y="435" text-anchor="middle" font-size="14" font-weight="700" fill="#7a3a1a">5</text>
<text x="748" y="435" font-size="13" fill="#2c2722">Execute the first chunk of the winner, then replan</text>
<path d="M704,366 C668,366 668,222 704,222" fill="none" stroke="#845a8e" stroke-width="1.8" stroke-dasharray="5 4" marker-end="url(#ah-845a8e)"/>
<text transform="rotate(-90 660 294.0)" x="660" y="294.0" text-anchor="middle" font-size="10.5" font-style="italic" fill="#523460">repeat · CEM iterations</text>
<text x="748" y="454" font-size="11.5" font-style="italic" fill="#7a3a1a">&#8635; then replan from the new observation</text>
</svg>